<mxfile host="app.diagrams.net" modified="2023-12-06T00:09:21.220Z" agent="Mozilla/5.0 (Macintosh; Intel Mac OS X 10_15_7) AppleWebKit/537.36 (KHTML, like Gecko) Chrome/119.0.0.0 Safari/537.36" etag="4e_pjENzkEcj7JPpdxsE" version="22.1.5" type="device">
  <diagram name="Page-1" id="wPN--51hr0P_g748tCMj">
    <mxGraphModel dx="954" dy="606" grid="1" gridSize="10" guides="1" tooltips="1" connect="1" arrows="1" fold="1" page="1" pageScale="1" pageWidth="850" pageHeight="1100" math="0" shadow="0">
      <root>
        <mxCell id="0" />
        <mxCell id="1" parent="0" />
        <mxCell id="sn_gq2LD8-xkkvKanI5n-1" value="Execution&lt;br&gt;Controller&lt;br&gt;(K8s Job)" style="whiteSpace=wrap;html=1;aspect=fixed;fillColor=#d5e8d4;strokeColor=#82b366;" vertex="1" parent="1">
          <mxGeometry x="240" y="40" width="80" height="80" as="geometry" />
        </mxCell>
        <mxCell id="sn_gq2LD8-xkkvKanI5n-2" value="Worker&lt;br&gt;(K8s Deployment)" style="whiteSpace=wrap;html=1;aspect=fixed;fillColor=#dae8fc;strokeColor=#6c8ebf;" vertex="1" parent="1">
          <mxGeometry x="399" y="120" width="80" height="80" as="geometry" />
        </mxCell>
        <mxCell id="sn_gq2LD8-xkkvKanI5n-3" value="Worker&lt;br&gt;(K8s Replica Set)" style="whiteSpace=wrap;html=1;aspect=fixed;fillColor=#1ba1e2;strokeColor=#006EAF;fontColor=#ffffff;" vertex="1" parent="1">
          <mxGeometry x="399" y="240" width="80" height="80" as="geometry" />
        </mxCell>
        <mxCell id="sn_gq2LD8-xkkvKanI5n-4" value="Execution&lt;br&gt;Controller&lt;br&gt;(K8s Pod)" style="ellipse;whiteSpace=wrap;html=1;aspect=fixed;fillColor=#60a917;fontColor=#ffffff;strokeColor=#2D7600;" vertex="1" parent="1">
          <mxGeometry x="240" y="160" width="80" height="80" as="geometry" />
        </mxCell>
        <mxCell id="sn_gq2LD8-xkkvKanI5n-5" value="Worker&lt;br&gt;(K8s Pod)" style="ellipse;whiteSpace=wrap;html=1;aspect=fixed;fillColor=#bac8d3;strokeColor=#23445d;" vertex="1" parent="1">
          <mxGeometry x="280" y="360" width="80" height="80" as="geometry" />
        </mxCell>
        <mxCell id="sn_gq2LD8-xkkvKanI5n-6" value="Worker&lt;br&gt;(K8s Pod)" style="ellipse;whiteSpace=wrap;html=1;aspect=fixed;fillColor=#bac8d3;strokeColor=#23445d;" vertex="1" parent="1">
          <mxGeometry x="400" y="360" width="80" height="80" as="geometry" />
        </mxCell>
        <mxCell id="sn_gq2LD8-xkkvKanI5n-7" value="Worker&lt;br&gt;(K8s Pod)" style="ellipse;whiteSpace=wrap;html=1;aspect=fixed;fillColor=#bac8d3;strokeColor=#23445d;" vertex="1" parent="1">
          <mxGeometry x="520" y="360" width="80" height="80" as="geometry" />
        </mxCell>
        <mxCell id="sn_gq2LD8-xkkvKanI5n-9" value="" style="endArrow=classic;html=1;rounded=0;exitX=0.5;exitY=0;exitDx=0;exitDy=0;entryX=0.5;entryY=1;entryDx=0;entryDy=0;" edge="1" parent="1" source="sn_gq2LD8-xkkvKanI5n-4" target="sn_gq2LD8-xkkvKanI5n-1">
          <mxGeometry width="50" height="50" relative="1" as="geometry">
            <mxPoint x="400" y="340" as="sourcePoint" />
            <mxPoint x="450" y="290" as="targetPoint" />
          </mxGeometry>
        </mxCell>
        <mxCell id="sn_gq2LD8-xkkvKanI5n-10" value="" style="endArrow=classic;html=1;rounded=0;exitX=0;exitY=0;exitDx=0;exitDy=0;entryX=1;entryY=0.5;entryDx=0;entryDy=0;" edge="1" parent="1" source="sn_gq2LD8-xkkvKanI5n-2" target="sn_gq2LD8-xkkvKanI5n-1">
          <mxGeometry width="50" height="50" relative="1" as="geometry">
            <mxPoint x="400" y="340" as="sourcePoint" />
            <mxPoint x="450" y="290" as="targetPoint" />
          </mxGeometry>
        </mxCell>
        <mxCell id="sn_gq2LD8-xkkvKanI5n-11" value="" style="endArrow=classic;html=1;rounded=0;entryX=0.5;entryY=1;entryDx=0;entryDy=0;" edge="1" parent="1" source="sn_gq2LD8-xkkvKanI5n-3" target="sn_gq2LD8-xkkvKanI5n-2">
          <mxGeometry width="50" height="50" relative="1" as="geometry">
            <mxPoint x="400" y="340" as="sourcePoint" />
            <mxPoint x="450" y="290" as="targetPoint" />
          </mxGeometry>
        </mxCell>
        <mxCell id="sn_gq2LD8-xkkvKanI5n-12" value="" style="endArrow=classic;html=1;rounded=0;exitX=1;exitY=0;exitDx=0;exitDy=0;entryX=0;entryY=1;entryDx=0;entryDy=0;" edge="1" parent="1" source="sn_gq2LD8-xkkvKanI5n-5" target="sn_gq2LD8-xkkvKanI5n-3">
          <mxGeometry width="50" height="50" relative="1" as="geometry">
            <mxPoint x="400" y="340" as="sourcePoint" />
            <mxPoint x="450" y="290" as="targetPoint" />
          </mxGeometry>
        </mxCell>
        <mxCell id="sn_gq2LD8-xkkvKanI5n-13" value="" style="endArrow=classic;html=1;rounded=0;exitX=0.5;exitY=0;exitDx=0;exitDy=0;entryX=0.5;entryY=1;entryDx=0;entryDy=0;" edge="1" parent="1" source="sn_gq2LD8-xkkvKanI5n-6" target="sn_gq2LD8-xkkvKanI5n-3">
          <mxGeometry width="50" height="50" relative="1" as="geometry">
            <mxPoint x="400" y="340" as="sourcePoint" />
            <mxPoint x="450" y="290" as="targetPoint" />
          </mxGeometry>
        </mxCell>
        <mxCell id="sn_gq2LD8-xkkvKanI5n-14" value="" style="endArrow=classic;html=1;rounded=0;exitX=0.25;exitY=0.125;exitDx=0;exitDy=0;exitPerimeter=0;entryX=1;entryY=1;entryDx=0;entryDy=0;" edge="1" parent="1" source="sn_gq2LD8-xkkvKanI5n-7" target="sn_gq2LD8-xkkvKanI5n-3">
          <mxGeometry width="50" height="50" relative="1" as="geometry">
            <mxPoint x="400" y="340" as="sourcePoint" />
            <mxPoint x="450" y="290" as="targetPoint" />
          </mxGeometry>
        </mxCell>
      </root>
    </mxGraphModel>
  </diagram>
</mxfile>
